# xmcd
#
# Track frame offsets: 
#        150
#        20933
#        34079
#        55529
#        80584
#        91248
#        110739
#        132912
#        152510
#        179798
#        201253
#        220861
#        234628
#
# Disc length: 3444 seconds
#
# Revision: 0
# Processed by: cddbd v1.4PL0 Copyright (c) Steve Scherf et al.
# Submitted via: ExactAudioCopy v0.90b4
#
DISCID=b60d720d
DTITLE=Van Morrison - Charlton Marquee - Hay-on-Wye 1997, disc 1
DYEAR=1997
DGENRE=Celtic
TTITLE0=If You Live
TTITLE1=Days Like This
TTITLE2=It Once Was My Life
TTITLE3=Rough God Goes Riding
TTITLE4=Ain't That Loving You Baby
TTITLE5=How Long Has This Been Going On
TTITLE6=Troubadours
TTITLE7=Snow In San Anselmo
TTITLE8=Fire In The Belly
TTITLE9=Sometimes We Cry
TTITLE10=A Change Is Gonna Come
TTITLE11=Domino
TTITLE12=Vanlose Stairway - Trans-Euro Train
EXTD=
EXTT0=
EXTT1=
EXTT2=
EXTT3=
EXTT4=
EXTT5=
EXTT6=
EXTT7=
EXTT8=
EXTT9=
EXTT10=
EXTT11=
EXTT12=
PLAYORDER=
